PathFileType	4	(X/Y/Z)	W:\OA_GaitRetraining\ACL OpenCap study\PS1\Edited\Trimmed_C90_L101.trc
DataRate	CameraRate	NumFrames	NumMarkers	Units	OrigDataRate	OrigDataStartFrame	OrigNumFrames
200.00	200.00	       5	46	mm	200.00	74	       147
Frame#	Time	C7			R_Shoulder			L_Shoulder			Sternum			R_humerus			R_elbow_med			R_elbow_lat			R_forearm			R_wrist_radius			R_wrist_ulna			L_humerus			L_elbow_med			L_elbow_lat			L_forearm			L_wrist_radius			L_wrist_ulna			r.ASIS			r.PSIS			L.ASIS			L.PSIS			r_thigh1			r_thigh2			r_thigh3			r_thigh4			r_thigh5			r_knee			r_shank_antsup			r_sh2			r_sh3			r_sh4			r_ankle			r_calc			r_5meta			r_toe			L_thigh1			L_thigh2			L_thigh3			L_thigh4			L_knee			L_shank_antsup			L_sh2			L_sh3			L_ankle			L_calc			L_5meta			L_toe			
		X1	Y1	Z1	X2	Y2	Z2	X3	Y3	Z3	X4	Y4	Z4	X5	Y5	Z5	X6	Y6	Z6	X7	Y7	Z7	X8	Y8	Z8	X9	Y9	Z9	X10	Y10	Z10	X11	Y11	Z11	X12	Y12	Z12	X13	Y13	Z13	X14	Y14	Z14	X15	Y15	Z15	X16	Y16	Z16	X17	Y17	Z17	X18	Y18	Z18	X19	Y19	Z19	X20	Y20	Z20	X21	Y21	Z21	X22	Y22	Z22	X23	Y23	Z23	X24	Y24	Z24	X25	Y25	Z25	X26	Y26	Z26	X27	Y27	Z27	X28	Y28	Z28	X29	Y29	Z29	X30	Y30	Z30	X31	Y31	Z31	X32	Y32	Z32	X33	Y33	Z33	X34	Y34	Z34	X35	Y35	Z35	X36	Y36	Z36	X37	Y37	Z37	X38	Y38	Z38	X39	Y39	Z39	X40	Y40	Z40	X41	Y41	Z41	X42	Y42	Z42	X43	Y43	Z43	X44	Y44	Z44	X45	Y45	Z45	X46	Y46	Z46	

74	0.365	697.41925	71.02270	1159.26453	776.47821	-71.76016	1094.53076	772.06226	207.77205	1051.04761	800.12830	51.65152	1029.44141	597.23328	-225.04588	1019.50183	479.12796	-182.04567	974.73438	509.02029	-257.77435	978.59668	555.82104	-242.14030	824.94458	536.50372	-230.50296	744.75806	582.74359	-215.75116	759.43866	697.89874	329.03317	933.83032	566.27325	357.52863	812.45068	606.86194	410.45377	829.26520	671.02649	419.75504	763.56256	744.07574	384.60580	644.29742	711.45453	429.32565	634.60724	592.48291	-134.39757	687.82904	436.30212	-5.48394	772.33691	661.45850	108.64064	731.52759	448.85919	61.77854	780.81433	646.38110	-155.98984	602.74609	738.06818	-152.44273	521.85638	722.51038	-181.65797	474.99210	574.33087	-181.40732	524.79321	660.43262	-172.07645	447.29193	781.46765	-154.07423	340.38562	744.34082	-116.24387	250.34418	657.40125	-56.54501	194.96933	690.60461	-136.36282	302.89499	600.85980	-81.04321	251.57802	503.75378	1.78477	155.78558	442.29819	58.26009	194.65247	536.69318	10.76719	47.01736	604.86664	50.10272	66.73185	734.48499	150.87816	669.45203	842.05774	145.16077	583.54614	671.94690	224.76367	600.63708	778.93207	207.21489	511.52890	911.14331	195.60797	446.97986	968.74084	240.64742	300.77109	887.98206	279.48746	319.05667	881.89844	302.39151	199.89624	912.81366	340.21146	98.82104	839.11511	337.53043	66.89503	1008.26770	349.17838	26.52818	1034.70422	282.68161	59.67800	
75	0.370	711.76440	68.89722	1157.50525	787.45782	-74.79732	1093.92322	785.23077	204.86124	1046.71509	811.16284	47.94639	1027.54224	608.69403	-226.28404	1014.69098	489.41705	-183.85246	973.13330	518.90344	-259.46051	975.57721	561.30713	-245.70738	820.12830	539.13397	-235.36325	740.84137	586.02307	-220.68263	753.73511	716.89136	325.05872	926.56525	591.19403	356.87170	796.76782	632.08600	408.26694	815.97211	698.39343	415.72742	752.93213	775.90900	379.10587	637.61304	744.73993	423.76263	626.97052	602.10266	-139.12370	688.51190	446.20654	-9.14136	773.94507	670.68518	106.32550	730.39441	458.35187	57.75711	781.29889	654.45599	-160.27328	604.18652	746.63013	-157.45433	523.82556	731.01184	-186.53094	476.75882	582.50464	-184.56184	525.89044	669.09894	-176.48410	448.81717	790.61639	-159.46753	342.05600	755.14520	-120.77797	251.61424	670.84167	-58.66580	195.56192	698.80377	-140.13100	303.50931	612.10248	-82.56032	251.22076	518.06891	2.43968	154.56668	457.84009	60.77732	192.76559	552.25098	10.26888	46.25700	622.21991	48.01640	66.65994	746.15253	150.06509	666.66437	852.16742	146.42213	579.04602	680.60742	221.81633	598.36609	786.06030	205.59348	507.48331	916.09216	197.48630	443.84131	972.38269	243.09026	297.73343	890.60431	279.16504	316.50180	882.85498	302.21210	197.64041	912.52307	340.68192	98.38729	839.33392	337.57401	66.35267	1008.05957	349.33170	25.90468	1035.70093	282.17160	60.07039	
76	0.375	725.40588	67.20086	1155.87048	798.10522	-77.95219	1093.58130	798.42047	201.67059	1042.88049	822.03131	44.17571	1025.85120	619.82990	-227.59392	1009.89844	499.56616	-186.13147	972.06598	528.89197	-261.38568	972.74316	566.52222	-249.67586	816.06665	541.31256	-240.84335	737.74896	588.85339	-225.81763	748.46832	735.98120	320.36392	919.72705	617.04596	353.62802	781.99854	657.45532	404.35239	804.02728	726.34277	409.97888	744.14972	807.67822	372.38010	631.75903	777.35107	417.10342	619.46350	610.20673	-143.29538	689.83691	454.93741	-12.28504	775.38287	679.85162	103.57582	729.58466	467.60986	54.12990	782.13062	662.68549	-164.85002	605.83130	755.05914	-162.85141	525.67682	739.22198	-191.85359	478.64178	590.52777	-187.65401	527.42139	677.49463	-181.02432	450.46460	799.69611	-165.28825	344.02567	766.05579	-125.84892	253.33159	683.88239	-61.19820	195.96271	708.24707	-143.75919	305.24377	624.12250	-83.61999	252.24017	532.76794	2.69608	153.25139	473.76868	62.93937	190.68111	568.21466	9.31663	45.36335	637.92273	45.19434	65.91045	756.79181	149.64490	664.81165	860.77527	147.33746	575.08478	687.81061	218.45148	597.09601	792.13373	203.97124	504.37564	921.52655	198.96349	441.62064	975.75696	245.21785	295.53436	892.97040	278.79861	314.25797	883.78857	301.73792	195.67798	912.73541	341.14877	98.27175	839.16718	337.65549	66.05560	1008.02264	349.89661	25.60961	1032.88892	284.79059	58.82162	
77	0.380	737.13757	66.78398	1156.17761	808.41644	-81.08716	1093.48035	811.54456	198.01480	1039.55371	832.74805	40.35900	1024.37634	629.97095	-228.15077	1004.94427	509.25867	-189.01314	971.61194	538.69037	-263.02740	969.83185	571.47156	-253.94072	813.12335	543.79694	-248.64536	737.24689	590.62061	-231.06319	743.90088	754.95746	315.19934	913.40820	643.84338	347.84573	768.67975	684.78674	398.26651	792.65186	754.59686	402.41510	737.01733	839.94537	364.49945	627.20026	810.13428	409.04416	612.81934	618.27533	-147.19397	691.60913	464.78918	-15.25928	777.35748	688.92822	101.06821	729.41248	476.75714	50.70200	783.46075	670.81561	-169.77415	607.51984	764.18835	-168.19545	527.73102	747.16840	-197.49164	480.46646	598.34235	-191.10883	529.00232	685.59937	-185.67744	452.17331	808.95648	-171.40549	346.23041	776.76355	-131.24052	255.44740	696.54022	-64.95538	197.20453	718.61383	-147.38068	307.01385	635.95776	-85.08616	253.50299	547.68469	2.44328	151.97136	489.93301	64.54701	188.43401	584.13684	6.92980	44.99504	654.89380	41.62823	65.47379	765.38721	149.61153	664.54700	868.20746	146.90820	573.63318	693.67517	215.55217	596.36188	798.37036	202.31848	503.14389	925.49585	199.64845	438.66782	978.88586	246.34340	294.42004	895.35028	278.16483	313.82672	885.28430	301.33521	194.90280	912.29724	341.28799	97.85149	838.67377	337.84534	66.03447	1007.87286	350.18359	25.23321	1032.51465	285.10089	58.75195	
78	0.385	749.67322	65.46761	1154.50293	818.49786	-84.30139	1093.56116	824.18243	193.62624	1036.30103	843.32050	36.43406	1023.19080	640.40405	-229.88774	1001.34351	518.50574	-191.86557	971.10126	548.76941	-265.64740	967.97314	576.24921	-258.57300	811.42328	544.26758	-253.32004	734.83923	592.00238	-236.65559	740.05237	774.28174	309.37827	907.38025	670.72937	339.92398	757.19696	711.67694	391.33005	783.57080	783.87811	393.64615	731.60199	872.33118	355.29666	624.04071	843.87360	399.04514	608.26190	624.70398	-149.55132	692.82422	474.04947	-18.19566	779.58270	697.87787	98.52459	729.41150	485.81152	47.41799	785.24658	678.52197	-175.01588	609.16846	772.19550	-174.48016	529.65033	753.58594	-203.50835	481.21295	605.96600	-195.12679	530.53448	693.53241	-190.36264	453.83359	818.21826	-177.68637	348.71951	786.89624	-136.98102	258.16034	708.66187	-69.43223	198.44446	729.21222	-151.06070	308.87045	648.13562	-87.40487	254.97575	562.72882	2.26770	149.45433	506.41251	65.25231	186.09145	601.63202	5.08979	44.15306	673.06476	36.76404	65.56257	772.43390	148.46167	664.99280	874.64563	144.86661	573.68060	699.31580	212.77156	596.65356	804.20514	200.97954	503.96085	931.11664	199.31581	437.36087	981.88159	246.20454	293.72177	898.15948	276.97342	313.83884	886.95215	300.91486	195.17703	912.25116	341.56229	97.75056	838.52216	337.88873	65.86659	1007.79681	350.40564	24.81972	1032.37402	285.46326	58.58237	
